<?xml version="1.0" encoding="UTF-8" standalone="no"?>
<!-- Created with Inkscape (http://www.inkscape.org/) -->

<svg
   width="200"
   height="200"
   viewBox="0 0 200 200"
   version="1.1"
   id="svg5"
   inkscape:version="1.2.1 (8a69933317, 2022-10-28, custom)"
   xml:space="preserve"
   sodipodi:docname="cloud.svg"
   xmlns:inkscape="http://www.inkscape.org/namespaces/inkscape"
   xmlns:sodipodi="http://sodipodi.sourceforge.net/DTD/sodipodi-0.dtd"
   xmlns="http://www.w3.org/2000/svg"
   xmlns:svg="http://www.w3.org/2000/svg"><sodipodi:namedview
     id="namedview7"
     pagecolor="#ffffff"
     bordercolor="#000000"
     borderopacity="0.25"
     inkscape:showpageshadow="2"
     inkscape:pageopacity="0.0"
     inkscape:pagecheckerboard="0"
     inkscape:deskcolor="#d1d1d1"
     inkscape:document-units="px"
     showgrid="false"
     inkscape:zoom="1.9855336"
     inkscape:cx="155.8775"
     inkscape:cy="166.454"
     inkscape:window-width="3440"
     inkscape:window-height="1322"
     inkscape:window-x="0"
     inkscape:window-y="0"
     inkscape:window-maximized="1"
     inkscape:current-layer="layer1" /><defs
     id="defs2" /><g
     inkscape:label="Laag 1"
     inkscape:groupmode="layer"
     id="layer1"><path
       style="fill:#000000;stroke-width:0.750041"
       id="path336"
       d="" /><path
       style="fill:#000000;stroke-width:0.750041"
       id="path334"
       d="" /><path
       style="fill:#000000;stroke-width:0.750041"
       id="path332"
       d="" /><path
       style="fill:#000000;stroke-width:0.750041"
       id="path330"
       d="" /><path
       style="fill:#000000;stroke-width:0.750041"
       id="path328"
       d="" /><path
       id="path394"
       style="fill:none;stroke:#0589f6;stroke-width:6.13704;stroke-linejoin:round;stroke-dasharray:none;paint-order:stroke fill markers"
       d="m 53.65871,134.01931 c -9.559138,-0.58532 -5.880799,0.6143 -15.084724,-2.75923 -7.489477,-2.50014 -12.266823,-9.07734 -13.850174,-16.59432 -3.021493,-8.11353 0.631626,-17.127588 6.636024,-22.851652 -0.456078,-7.3048 -2.76427,-16.552486 2.832441,-23.071414 6.004237,-8.987242 17.783431,-14.063371 28.244591,-10.259729 5.72149,0.928635 13.400361,5.1029 13.911141,-3.692848 3.808014,-8.660509 12.13334,-15.136582 21.716043,-15.691255 16.156418,-1.859352 35.246038,1.718348 44.941548,16.062051 4.89417,7.120112 9.02419,16.537353 4.78411,24.956733 -2.17793,5.435352 9.33905,0.633605 12.80356,3.677687 8.90133,3.752201 18.5517,10.985748 19.24401,21.414857 0.46054,10.60136 -4.79134,22.31485 -15.10521,25.76399 -8.90937,2.97945 -11.8692,1.5832 -21.54303,1.89071"
       sodipodi:nodetypes="csssscssscsssc" /><rect
       style="fill:#0589f6;fill-opacity:1;fill-rule:evenodd;stroke-width:0.907625"
       id="rect470"
       width="65.639091"
       height="7.4202886"
       x="-175.44797"
       y="82.576103"
       ry="3.7101443"
       transform="rotate(-90)" /><rect
       style="fill:#0589f6;fill-opacity:1;fill-rule:evenodd;stroke-width:1.02316"
       id="rect750"
       width="30.833012"
       height="7.7235551"
       x="-82.962372"
       y="127.412"
       ry="3.5953696"
       transform="rotate(-60)" /><rect
       style="fill:#0589f6;fill-opacity:1;fill-rule:evenodd;stroke-width:1.02316"
       id="rect750-3"
       width="30.833012"
       height="7.7235551"
       x="-169.56792"
       y="14.371613"
       ry="3.5953696"
       transform="rotate(-120)" /><rect
       style="fill:#0589f6;fill-opacity:1;fill-rule:evenodd;stroke-width:0.907625"
       id="rect470-6"
       width="65.639091"
       height="7.4202886"
       x="110.27212"
       y="-124.32462"
       ry="3.7101443"
       transform="rotate(90)" /><rect
       style="fill:#0589f6;fill-opacity:1;fill-rule:evenodd;stroke-width:1.02316"
       id="rect750-7"
       width="30.833012"
       height="7.7235551"
       x="61.028107"
       y="-194.62932"
       ry="3.5953696"
       transform="rotate(120)" /><rect
       style="fill:#0589f6;fill-opacity:1;fill-rule:evenodd;stroke-width:1.02316"
       id="rect750-3-5"
       width="30.833012"
       height="7.7235551"
       x="181.3233"
       y="-21.949636"
       ry="3.5953696"
       transform="rotate(60)" /></g></svg>
