<?xml version="1.0" encoding="UTF-8" standalone="no"?>
<!-- Created with Inkscape (http://www.inkscape.org/) -->

<svg
   width="200"
   height="200"
   viewBox="0 0 200 200"
   version="1.1"
   id="svg5"
   inkscape:version="1.2.1 (0f2f062aeb, 2022-09-21, custom)"
   xml:space="preserve"
   sodipodi:docname="cloud.svg"
   xmlns:inkscape="http://www.inkscape.org/namespaces/inkscape"
   xmlns:sodipodi="http://sodipodi.sourceforge.net/DTD/sodipodi-0.dtd"
   xmlns="http://www.w3.org/2000/svg"
   xmlns:svg="http://www.w3.org/2000/svg"><sodipodi:namedview
     id="namedview7"
     pagecolor="#ffffff"
     bordercolor="#000000"
     borderopacity="0.25"
     inkscape:showpageshadow="2"
     inkscape:pageopacity="0.0"
     inkscape:pagecheckerboard="0"
     inkscape:deskcolor="#d1d1d1"
     inkscape:document-units="px"
     showgrid="false"
     inkscape:zoom="2.8079685"
     inkscape:cx="110.4001"
     inkscape:cy="124.11108"
     inkscape:window-width="1717"
     inkscape:window-height="856"
     inkscape:window-x="26"
     inkscape:window-y="23"
     inkscape:window-maximized="0"
     inkscape:current-layer="layer1" /><defs
     id="defs2" /><g
     inkscape:label="Laag 1"
     inkscape:groupmode="layer"
     id="layer1"><path
       style="fill:#000000;stroke-width:0.750041"
       id="path336"
       d="" /><path
       style="fill:#000000;stroke-width:0.750041"
       id="path334"
       d="" /><path
       style="fill:#000000;stroke-width:0.750041"
       id="path332"
       d="" /><path
       style="fill:#000000;stroke-width:0.750041"
       id="path330"
       d="" /><path
       style="fill:#000000;stroke-width:0.750041"
       id="path328"
       d="" /><path
       id="path394"
       style="fill:none;stroke:#0589f6;stroke-width:6.13704;stroke-linejoin:round;stroke-dasharray:none;paint-order:stroke fill markers"
       d="m 67.368877,132.85814 c -9.559138,-0.58532 -19.590966,1.77547 -28.794891,-1.59806 -7.489477,-2.50014 -12.266823,-9.07734 -13.850174,-16.59432 -3.021493,-8.11353 0.631626,-17.127588 6.636024,-22.851652 -0.456078,-7.3048 -2.76427,-16.552486 2.832441,-23.071414 6.004237,-8.987242 17.783431,-14.063371 28.244591,-10.259729 5.72149,0.928635 13.400361,5.1029 13.911141,-3.692848 3.808014,-8.660509 12.13334,-15.136582 21.716043,-15.691255 16.156418,-1.859352 35.246038,1.718348 44.941548,16.062051 4.89417,7.120112 9.02419,16.537353 4.78411,24.956733 -2.17793,5.435352 9.33905,0.633605 12.80356,3.677687 8.90133,3.752201 18.5517,10.985748 19.24401,21.414857 0.46054,10.60136 -5.09744,21.50758 -15.10521,25.76399 -9.32671,3.113 -19.43138,1.59572 -29.10521,1.90323 l -0.95611,-0.001 -0.96186,0.006"
       sodipodi:nodetypes="csssscssscssscsscsc" /><path
       id="rect1116"
       style="fill:#0589f6;fill-rule:evenodd;stroke-width:0.495767"
       d="m 87.079454,125.55179 c 4.415178,-0.70919 3.227885,4.49707 3.350748,7.24194 -0.108378,13.99531 0.217307,28.0338 -0.163817,42.00199 -3.301039,3.83704 -6.478171,-1.132 -5.277936,-4.67863 0.108425,-14.42456 -0.21737,-28.8923 0.163817,-43.28972 0.310124,-0.76068 1.104307,-1.28875 1.927188,-1.27558 z" /><path
       id="rect1116-6-5"
       style="fill:#0589f6;fill-rule:evenodd;stroke-width:0.307734"
       d="m 88.220317,125.05686 c 3.083144,2.40438 -1.332824,5.23009 -2.523499,7.49595 -3.171441,4.03547 -6.048115,8.34854 -9.401633,12.21254 -4.96967,0.86423 -2.714125,-4.78628 -0.335695,-6.61134 3.429946,-4.37817 6.565323,-9.03376 10.177302,-13.24049 0.638995,-0.37943 1.498919,-0.32211 2.083525,0.14334 z" /><path
       id="rect1116-6-5-3"
       style="fill:#0589f6;fill-rule:evenodd;stroke-width:0.307734"
       d="m 86.075552,125.25743 c 3.05854,-2.43561 4.773585,2.51859 6.698294,4.20597 3.182225,4.02697 6.703277,7.83225 9.676214,11.99615 -0.32151,5.03401 -5.288157,1.51999 -6.50662,-1.2192 -3.454992,-4.35842 -7.248583,-8.4953 -10.494337,-12.99063 -0.219533,-0.71 0.03723,-1.5327 0.626449,-1.99229 z" /><path
       id="rect1116-6"
       style="fill:#0589f6;fill-rule:evenodd;stroke-width:0.495767"
       d="m 119.10299,174.92323 c -4.41426,0.71483 -3.23362,-4.49295 -3.36,-7.23765 0.0905,-13.99544 -0.25314,-28.0335 0.11013,-42.00217 3.29613,-3.84126 6.47961,1.12373 5.28391,4.67188 -0.09,14.42469 0.2543,28.892 -0.10848,43.28989 -0.30915,0.76108 -1.10267,1.29016 -1.92556,1.27805 z" /><path
       id="rect1116-6-5-7"
       style="fill:#0589f6;fill-rule:evenodd;stroke-width:0.307734"
       d="m 117.96275,175.41962 c -3.08621,-2.40045 1.32614,-5.2318 2.51392,-7.49917 3.16628,-4.03952 6.03744,-8.35627 9.38601,-12.22455 4.96857,-0.87058 2.72024,4.78281 0.34415,6.6109 -3.42435,4.38255 -6.55377,9.04215 -10.16037,13.25349 -0.63851,0.38025 -1.49851,0.32403 -2.08371,-0.14067 z" /><path
       id="rect1116-6-5-3-5"
       style="fill:#0589f6;fill-rule:evenodd;stroke-width:0.307734"
       d="m 120.10726,175.2163 c -3.05543,2.43951 -4.77681,-2.51248 -6.70367,-4.19741 -3.18737,-4.0229 -6.71328,-7.82367 -9.69154,-11.98377 0.31508,-5.03442 5.28621,-1.52675 6.50817,1.21089 3.46056,4.354 7.25944,8.48602 10.51094,12.9772 0.22044,0.70971 -0.0353,1.53275 -0.6239,1.99309 z" /></g></svg>
