<?xml version="1.0" encoding="UTF-8" standalone="no"?>
<!-- Created with Inkscape (http://www.inkscape.org/) -->

<svg
   width="200"
   height="200"
   viewBox="0 0 200 200"
   version="1.1"
   id="svg390"
   xml:space="preserve"
   inkscape:version="1.2.2 (b0a8486541, 2022-12-01, custom)"
   sodipodi:docname="filter-remove.svg"
   xmlns:inkscape="http://www.inkscape.org/namespaces/inkscape"
   xmlns:sodipodi="http://sodipodi.sourceforge.net/DTD/sodipodi-0.dtd"
   xmlns="http://www.w3.org/2000/svg"
   xmlns:svg="http://www.w3.org/2000/svg"><sodipodi:namedview
     id="namedview392"
     pagecolor="#ffffff"
     bordercolor="#000000"
     borderopacity="0.25"
     inkscape:showpageshadow="2"
     inkscape:pageopacity="0.0"
     inkscape:pagecheckerboard="0"
     inkscape:deskcolor="#d1d1d1"
     inkscape:document-units="px"
     showgrid="false"
     inkscape:zoom="0.99686448"
     inkscape:cx="-239.75175"
     inkscape:cy="169.03"
     inkscape:window-width="1720"
     inkscape:window-height="1322"
     inkscape:window-x="26"
     inkscape:window-y="23"
     inkscape:window-maximized="0"
     inkscape:current-layer="g253" /><defs
     id="defs387" /><g
     inkscape:label="Laag 1"
     inkscape:groupmode="layer"
     id="layer1"><path
       style="fill:#000000;stroke-width:0;stroke-dasharray:none;paint-order:fill markers stroke;stroke:#000000;stroke-opacity:1"
       d="m 77.556632,171.78938 c -0.530709,-0.36923 -1.068681,-1.06635 -1.255102,-1.6264 -0.244196,-0.73363 -0.330147,-8.35808 -0.341696,-30.3105 l -0.01543,-29.33031 -19.3577,-27.537331 C 45.939969,67.839308 36.837183,54.858237 36.358291,54.138012 L 35.487577,52.828513 V 41.480621 c 0,-12.621164 0.0099,-12.695495 1.786197,-13.463476 1.39433,-0.602826 108.200016,-0.604135 109.594266,-0.0013 1.9011,0.82192 1.91651,0.908305 2.00817,11.253921 l 0.0822,9.276506 h 6.56029 c 5.32926,0 6.71076,0.08051 7.36217,0.429065 1.68791,0.903177 1.63119,0.131212 1.63119,22.199128 0,22.309764 0.0712,21.423143 -1.7862,22.226198 -0.77603,0.335511 -4.37968,0.401997 -21.78828,0.401997 h -20.85844 l -5.93365,8.41485 -5.93366,8.41486 -0.006,29.51534 c -0.007,32.71669 0.0938,30.92341 -1.77654,31.84179 -0.78937,0.38759 -2.68252,0.44613 -14.426377,0.44613 H 78.485469 Z m 24.356688,-34.27275 c 0,-21.25641 0.0814,-28.5982 0.32311,-29.14714 0.1777,-0.40357 8.60246,-12.533331 18.72169,-26.955006 l 18.3986,-26.221224 -23.64213,-0.07228 c -13.00316,-0.03975 -34.259749,-0.03975 -47.236844,0 l -23.594723,0.07228 17.883661,25.456718 c 9.836012,14.001191 18.239444,26.022602 18.674295,26.714212 l 0.790636,1.25751 v 28.65415 28.65413 h 9.84085 9.840855 z M 158.22484,71.174421 V 55.051833 l -5.53548,0.01189 -5.53548,0.01189 -11.25953,16.110703 -11.25954,16.110701 h 16.79502 16.79501 V 71.174422 Z M 142.6435,41.333491 V 34.120754 H 92.209143 41.774787 v 7.212737 7.212737 H 92.209143 142.6435 Z"
       id="path1893" /><g
       id="g253"
       transform="matrix(3.1949346,3.1019245,-3.167356,3.1289335,-83.980052,146.14724)"
       style="fill:#d35f5f;stroke-width:0;stroke-dasharray:none;paint-order:stroke fill markers"
       inkscape:transform-center-x="13.420988"
       inkscape:transform-center-y="-52.147886"><rect
         style="fill:#d35f5f;fill-rule:evenodd;stroke:#000000;stroke-width:0;stroke-dasharray:none;stroke-opacity:1;paint-order:stroke fill markers"
         id="rect1104-7"
         width="42.185299"
         height="3.7312603"
         x="17.795166"
         y="20.17881"
         ry="1.8236749"
         transform="matrix(-0.00554376,-0.99998463,0.99270628,0.12055806,0,0)" /></g></g></svg>
